<svg xmlns="http://www.w3.org/2000/svg" width="24" height="24" viewBox="0 0 24 24" fill="currentColor"><path d="M12 .5C5.648.5.5 5.648.5 12c0 5.092 3.292 9.402 7.868 10.92.576.106.787-.25.787-.557 0-.275-.01-1.004-.016-1.972-3.2.695-3.877-1.543-3.877-1.543-.524-1.332-1.28-1.688-1.28-1.688-1.046-.715.08-.7.08-.7 1.157.082 1.766 1.189 1.766 1.189 1.028 1.763 2.698 1.254 3.354.96.104-.745.402-1.255.73-1.543-2.554-.291-5.237-1.278-5.237-5.687 0-1.256.45-2.282 1.188-3.086-.12-.29-.516-1.462.112-3.05 0 0 .966-.31 3.166 1.178a10.98 10.98 0 0 1 2.884-.388c.978.005 1.964.132 2.884.388 2.2-1.488 3.164-1.178 3.164-1.178.63 1.588.234 2.76.114 3.05.738.804 1.186 1.83 1.186 3.086 0 4.42-2.688 5.392-5.254 5.677.41.354.784 1.052.784 2.122 0 1.533-.014 2.768-.014 3.146 0 .31.206.67.794.556C20.212 21.398 23.5 17.09 23.5 12 23.5 5.648 18.352.5 12 .5z"/></svg>